<?xml version="1.0" encoding="UTF-8"?>
<svg width="28px" height="28px" viewBox="0 0 28 28" version="1.1" xmlns="http://www.w3.org/2000/svg" xmlns:xlink="http://www.w3.org/1999/xlink">
    <title>Group 20</title>
    <g id="登录注册" stroke="none" stroke-width="1" fill="none" fill-rule="evenodd">
        <g transform="translate(-1165.000000, -727.000000)" id="Group-19">
            <g transform="translate(1057.000000, 727.000000)">
                <g id="Group-20" transform="translate(108.000000, 0.000000)">
                    <circle id="Oval-Copy-3" fill="#3296FA" cx="14" cy="14" r="14"></circle>
                    <path d="M20.9661867,11.9846018 C20.9371154,12.1049541 20.8615302,12.2671679 20.7568737,12.4843252 L20.7423381,12.497407 C20.1143993,13.6956965 18.4951312,16.0425649 18.4951312,16.0425649 L18.4805956,16.0294831 L18.0009201,16.7699109 L20.2917339,16.7699109 L15.9194193,22 L16.9078415,18.4417603 L15.1112388,18.4417603 L15.7391776,16.0818102 C15.2304309,16.1890806 14.6315634,16.3382127 13.9280394,16.5527537 C13.9280394,16.5527537 12.9686884,17.052477 11.1720858,15.5820868 C11.1720858,15.5820868 9.95981503,14.6114199 10.663339,14.3837973 C10.9627728,14.2765268 12.1169011,14.1535582 13.029738,14.0462878 C14.2565444,13.8971557 15.021118,13.8160487 15.021118,13.8160487 C15.021118,13.8160487 11.2331354,13.8709921 10.334834,13.7349418 C9.4365327,13.6145896 8.29694007,12.2514698 8.0585559,11.066262 C8.0585559,11.066262 7.6835369,10.4200229 8.86673639,10.7287525 C10.0354003,11.0374821 14.9484399,11.9270421 14.9484399,11.9270421 C14.9484399,11.9270421 8.56730261,10.1793185 8.14867675,9.74762026 C7.73005088,9.31592206 6.90442765,7.40336823 7.00908412,6.22862587 C7.00908412,6.22862587 7.05269098,5.93297801 7.38410312,6.01408495 C7.38410312,6.01408495 12.0878298,7.95541866 15.3060162,9.00719244 C18.5416452,10.0851298 21.3412057,10.6240984 20.9661867,11.9846018 Z" id="Path" fill="#FFFFFF" fill-rule="nonzero"></path>
                </g>
            </g>
        </g>
    </g>
</svg>